<svg aria-hidden="true" focusable="false" width="120" height="90" viewBox="0 0 120 90" fill="none" xmlns="http://www.w3.org/2000/svg">
<g clip-path="url(#clip0)">
<mask id="mask0" mask-type="alpha" maskUnits="userSpaceOnUse" x="0" y="-1" width="91" height="92">
<path d="M0.534821 79.2986L7.23154 78.3691L35.7569 -0.0776062H55.01L83.3423 78.3691L90.0388 79.2986V90.1424H58.1007V79.2986L64.6043 78.1832L60.4832 65.7905H30.0905L25.9695 78.1832L32.473 79.2986V90.1424H0.534821V79.2986ZM34.5334 52.4682H56.0403L45.4802 20.6804H45.0936L34.5334 52.4682Z" fill="#CCCCCC"/>
</mask>
<g mask="url(#mask0)">
<path d="M88.2527 -6.20984H-2.10525V31.3911H88.2527V-6.20984Z" fill="#FFB703"/>
<path d="M90.6947 66.6419H0.336849V125.393H90.6947V66.6419Z" fill="#FFB703"/>
<path d="M43.0582 26.2559L-36.5955 2.08163L-55.718 60.4293L23.9358 84.6036L43.0582 26.2559Z" fill="#FFB703"/>
<path d="M67.2845 86.5074L146.938 62.3331L127.433 2.81931L46.7368 24.3409L67.2845 86.5074Z" fill="#FFB703"/>
</g>
<path d="M120 31.391H56.5053V50.1915H120V31.391Z" fill="#FFB703"/>
<path d="M29.6421 31.391H41.5339L47.9579 50.1915H29.6421V31.391Z" fill="#FFB703"/>
<path d="M80.2288 47.5453H78.7857V45.4914H75.5006V47.5453H74.0876L73.8253 44.1946H74.1472C74.3301 44.103 74.4891 43.9749 74.6241 43.8104C74.7594 43.6459 74.8727 43.424 74.9641 43.1448C75.0554 42.8617 75.1289 42.5117 75.1846 42.0948C75.2403 41.6742 75.2801 41.1616 75.304 40.5572L75.5424 37.1376H79.8292V44.1946H80.4671L80.2288 47.5453ZM76.9852 40.5572C76.9654 41.0047 76.9356 41.41 76.8958 41.7736C76.8601 42.1369 76.8123 42.4678 76.7527 42.766C76.6931 43.0607 76.6235 43.3265 76.5441 43.5636C76.4645 43.797 76.3771 44.0073 76.2816 44.1946H78.1598V38.4459H77.1283L76.9852 40.5572ZM81.6596 45.4914V37.1376H84.575C85.048 37.1376 85.4773 37.1835 85.8629 37.2754C86.2525 37.3672 86.5843 37.5068 86.8586 37.6941C87.1328 37.8817 87.3436 38.1188 87.4906 38.4057C87.6415 38.6924 87.7172 39.0311 87.7172 39.4212C87.7131 39.8113 87.6039 40.1612 87.3893 40.4712C87.1785 40.7809 86.8666 41.0162 86.4532 41.1769C86.7035 41.238 86.9201 41.3299 87.103 41.4521C87.286 41.5745 87.4369 41.72 87.5561 41.8883C87.6794 42.0528 87.7688 42.2344 87.8244 42.4333C87.884 42.6283 87.9138 42.8311 87.9138 43.0414C87.9138 43.4431 87.8423 43.797 87.6992 44.103C87.556 44.4089 87.3514 44.6651 87.0852 44.8717C86.8188 45.0782 86.495 45.2331 86.1133 45.3365C85.7318 45.4397 85.3025 45.4914 84.8255 45.4914H81.6596ZM83.341 41.8079V44.189H84.8314C85.2886 44.1852 85.6363 44.0781 85.8749 43.8677C86.1174 43.6534 86.2385 43.3742 86.2385 43.0299C86.2424 42.6476 86.1352 42.3491 85.9167 42.135C85.6978 41.9207 85.3601 41.8117 84.9029 41.8079H83.341ZM83.341 40.6432H84.5869C85.0522 40.6395 85.4097 40.5457 85.6602 40.3622C85.9106 40.1786 86.0378 39.9088 86.0417 39.553C86.0417 39.1629 85.9167 38.8837 85.6661 38.7155C85.4158 38.5434 85.0541 38.4553 84.5811 38.4516H83.341V40.6432ZM95.0626 41.9285C95.0626 42.464 94.9891 42.9573 94.8418 43.4088C94.6948 43.86 94.4821 44.2482 94.2039 44.5735C93.9258 44.8985 93.5859 45.153 93.1844 45.3365C92.787 45.5163 92.3379 45.6061 91.8371 45.6061C91.3362 45.6061 90.891 45.5163 90.5015 45.3365C90.112 45.153 89.784 44.8985 89.5178 44.5735C89.2514 44.2444 89.0487 43.8562 88.9095 43.4088C88.7705 42.9573 88.7009 42.464 88.7009 41.9285V40.7121C88.7009 40.1765 88.7705 39.6832 88.9095 39.2318C89.0487 38.7806 89.2514 38.3923 89.5178 38.0671C89.784 37.7381 90.11 37.4819 90.4956 37.2984C90.8851 37.1146 91.3303 37.023 91.831 37.023C92.3357 37.023 92.787 37.1146 93.1844 37.2984C93.5859 37.4819 93.9258 37.7381 94.2039 38.0671C94.4821 38.3923 94.6948 38.7806 94.8418 39.2318C94.9891 39.6832 95.0626 40.1765 95.0626 40.7121V41.9285ZM93.3634 40.7006C93.3634 40.3603 93.3336 40.0465 93.274 39.7596C93.2183 39.4729 93.1287 39.2261 93.0056 39.0196C92.8823 38.813 92.7233 38.6523 92.5287 38.5376C92.3379 38.4191 92.1052 38.3597 91.831 38.3597C91.5609 38.3597 91.3342 38.4191 91.1513 38.5376C90.9684 38.6523 90.8214 38.813 90.71 39.0196C90.5989 39.2261 90.5193 39.4729 90.4717 39.7596C90.4241 40.0465 90.4001 40.3603 90.4001 40.7006V41.9285C90.4001 42.265 90.4241 42.5768 90.4717 42.8636C90.5193 43.1505 90.5989 43.3991 90.71 43.6095C90.8214 43.8198 90.9684 43.9843 91.1513 44.103C91.3342 44.2214 91.5628 44.2809 91.8371 44.2809C92.1074 44.2809 92.3379 44.2214 92.5287 44.103C92.7233 43.9843 92.8803 43.8219 92.9995 43.6153C93.1228 43.4048 93.2142 43.1561 93.274 42.8694C93.3336 42.5825 93.3634 42.2687 93.3634 41.9285V40.7006ZM98.8305 42.0603H98.133V45.4914H96.4578V37.1376H98.133V40.8155H98.5445L100.816 37.1376H102.754L100.166 41.1595L102.855 45.4914H100.911L98.8305 42.0603ZM107.941 43.7472H105.335L104.823 45.4914H103.058L105.902 37.1376H107.422L110.212 45.4914H108.448L107.941 43.7472ZM105.747 42.3759H107.547L106.659 39.3006L105.747 42.3759ZM117.385 38.4516H114.708V45.4914H113.026V38.4516H110.385V37.1376H117.385V38.4516Z" fill="#5F5925"/>
<path d="M69.4826 57.2416H68.0803V51.6833H66.0197V57.2416H64.6174V50.5586H69.4826V57.2416ZM73.6864 57.2416C73.6483 57.165 73.61 57.0367 73.5719 56.856C73.3304 57.1744 73.0026 57.3335 72.5894 57.3335C72.1569 57.3335 71.7977 57.1958 71.5115 56.9204C71.2284 56.645 71.0868 56.2885 71.0868 55.8509C71.0868 55.3306 71.2585 54.9283 71.6021 54.6437C71.9486 54.3591 72.4463 54.2138 73.0949 54.2077H73.5052V53.8085C73.5052 53.585 73.4654 53.4275 73.3858 53.3356C73.3064 53.2437 73.1904 53.1979 73.0378 53.1979C72.7005 53.1979 72.532 53.3876 72.532 53.7671H71.1823C71.1823 53.3081 71.3603 52.9302 71.7164 52.6334C72.0758 52.3336 72.5289 52.1836 73.0759 52.1836C73.642 52.1836 74.0791 52.3258 74.3875 52.6104C74.6992 52.8919 74.855 53.2959 74.855 53.8221V56.1585C74.8613 56.5869 74.925 56.9218 75.0457 57.1636V57.2416H73.6864ZM72.8898 56.3146C73.0393 56.3146 73.1665 56.2854 73.2715 56.2274C73.3763 56.1691 73.4542 56.1002 73.5052 56.0208V54.9879H73.1809C72.9518 54.9879 72.7706 55.0585 72.637 55.1992C72.5066 55.34 72.4414 55.528 72.4414 55.7637C72.4414 56.1308 72.5909 56.3146 72.8898 56.3146ZM80.4039 57.2416H79.0542V55.3369H77.8663V57.2416H76.5117V52.2753H77.8663V54.2627H79.0542V52.2753H80.4039V57.2416ZM85.8859 57.2416H84.5313V55.7087C84.3723 55.7393 84.2182 55.7545 84.0688 55.7545C83.3884 55.7545 82.8731 55.5924 82.5234 55.2681C82.1769 54.9405 82.0035 54.4679 82.0035 53.8496V52.2753H83.3581V53.8543C83.3581 54.1572 83.4089 54.3699 83.5108 54.4923C83.6155 54.6148 83.8016 54.6759 84.0688 54.6759C84.2087 54.6759 84.3628 54.6589 84.5313 54.6253V52.2753H85.8859V57.2416ZM89.6319 57.3335C88.9388 57.3335 88.3981 57.1345 88.0103 56.7369C87.6223 56.339 87.4284 55.7698 87.4284 55.0293V54.6345C87.4284 53.8512 87.6064 53.2468 87.9625 52.8214C88.3188 52.3963 88.8292 52.1836 89.4937 52.1836C90.1423 52.1836 90.6305 52.3839 90.958 52.7848C91.2854 53.1826 91.4525 53.7732 91.4588 54.5565V55.1945H88.7735C88.7925 55.5618 88.8768 55.8309 89.0263 56.0025C89.1757 56.1707 89.4062 56.2549 89.7179 56.2549C90.1694 56.2549 90.5462 56.1063 90.8483 55.8095L91.3778 56.5944C91.2124 56.8149 90.9724 56.9937 90.6576 57.1314C90.3428 57.2661 90.0009 57.3335 89.6319 57.3335ZM88.783 54.2857H90.1328V54.1664C90.1264 53.8696 90.0756 53.6447 89.9801 53.4917C89.8849 53.3387 89.7196 53.2621 89.4841 53.2621C89.2487 53.2621 89.0771 53.3431 88.9691 53.5055C88.8641 53.6677 88.8021 53.9276 88.783 54.2857ZM96.8073 52.2753V57.2416H95.4575V53.3586H94.6563L94.5798 54.8916C94.5322 55.6871 94.3845 56.2762 94.1364 56.6588C93.8882 57.0381 93.5195 57.2325 93.0298 57.2416H92.591L92.5766 56.1585L92.7292 56.1399C92.9104 56.1155 93.044 55.9886 93.13 55.759C93.2157 55.5296 93.2714 55.1532 93.2968 54.63L93.3876 52.2753H96.8073ZM99.9286 54.1755H100.377C100.463 53.5636 100.685 53.0785 101.045 52.7206C101.407 52.3625 101.867 52.1836 102.423 52.1836C103.062 52.1836 103.571 52.413 103.949 52.872C104.328 53.3279 104.517 53.9737 104.517 54.8089C104.517 55.5771 104.329 56.1905 103.954 56.6494C103.579 57.1056 103.072 57.3335 102.433 57.3335C101.857 57.3335 101.386 57.1467 101.021 56.7735C100.658 56.4001 100.44 55.8937 100.367 55.2542H99.9286V57.2416H98.5788V52.2753H99.9286V54.1755ZM101.693 54.8089C101.693 55.7729 101.94 56.2549 102.433 56.2549C102.878 56.2549 103.121 55.8509 103.162 55.0432L103.167 54.7125C103.167 54.2291 103.104 53.8665 102.976 53.6247C102.849 53.3831 102.665 53.2621 102.423 53.2621C101.981 53.2621 101.739 53.6722 101.698 54.4923L101.693 54.8089ZM109.036 53.3586H107.362V57.2416H106.012V52.2753H109.036V53.3586ZM112.777 57.2416C112.739 57.165 112.701 57.0367 112.662 56.856C112.421 57.1744 112.093 57.3335 111.68 57.3335C111.247 57.3335 110.888 57.1958 110.602 56.9204C110.319 56.645 110.177 56.2885 110.177 55.8509C110.177 55.3306 110.349 54.9283 110.692 54.6437C111.039 54.3591 111.537 54.2138 112.185 54.2077H112.596V53.8085C112.596 53.585 112.556 53.4275 112.476 53.3356C112.397 53.2437 112.281 53.1979 112.128 53.1979C111.791 53.1979 111.623 53.3876 111.623 53.7671H110.273C110.273 53.3081 110.451 52.9302 110.807 52.6334C111.166 52.3336 111.619 52.1836 112.166 52.1836C112.732 52.1836 113.17 52.3258 113.478 52.6104C113.79 52.8919 113.946 53.2959 113.946 53.8221V56.1585C113.952 56.5869 114.015 56.9218 114.136 57.1636V57.2416H112.777ZM111.98 56.3146C112.13 56.3146 112.257 56.2854 112.362 56.2274C112.467 56.1691 112.545 56.1002 112.596 56.0208V54.9879H112.271C112.042 54.9879 111.861 55.0585 111.728 55.1992C111.597 55.34 111.532 55.528 111.532 55.7637C111.532 56.1308 111.681 56.3146 111.98 56.3146ZM75.3385 63.5116H74.5609V66.6419H74.0173V59.9588H74.5609V63.0204H75.305L77.5183 59.9588H78.205L75.825 63.2406L78.3816 66.6419H77.7042L75.3385 63.5116ZM82.7286 66.6419C82.6807 66.4828 82.6489 66.2532 82.6331 65.9533C82.4741 66.2012 82.2689 66.3939 82.0179 66.5317C81.7698 66.6663 81.4994 66.7338 81.2069 66.7338C80.7617 66.7338 80.4151 66.6127 80.167 66.3711C79.9192 66.1293 79.7951 65.785 79.7951 65.3383C79.7951 64.8518 79.9668 64.4662 80.3101 64.1816C80.6569 63.897 81.1339 63.7532 81.7412 63.7501H82.6284V63.0571C82.6284 62.7022 82.5361 62.4482 82.3517 62.2952C82.1705 62.1392 81.9034 62.0611 81.5502 62.0611C81.2228 62.0611 80.9541 62.1528 80.7443 62.3366C80.5343 62.5201 80.4296 62.7572 80.4296 63.0479L79.9001 63.0435C79.9001 62.6364 80.0591 62.2922 80.3771 62.0106C80.695 61.726 81.0941 61.5838 81.5742 61.5838C82.0926 61.5838 82.4853 61.7091 82.7522 61.9601C83.0194 62.2111 83.153 62.5767 83.153 63.0571V65.4943C83.153 65.981 83.1991 66.3451 83.2912 66.5869V66.6419H82.7286ZM81.2738 66.2426C81.5854 66.2426 81.8604 66.1646 82.099 66.0085C82.3405 65.8525 82.5171 65.6443 82.6284 65.3841V64.1771H81.7888C81.3055 64.1832 80.9414 64.2871 80.6965 64.4892C80.4518 64.688 80.3292 64.9574 80.3292 65.2969C80.3292 65.9275 80.6442 66.2426 81.2738 66.2426ZM88.3393 62.1528H86.7844V66.6419H86.255V62.1528H84.7575V61.6755H88.3393V62.1528ZM91.3126 66.7338C90.7054 66.7338 90.23 66.5425 89.8866 66.1599C89.543 65.7775 89.3682 65.2328 89.3618 64.5259V63.92C89.3618 63.1918 89.5271 62.6212 89.8578 62.208C90.1887 61.7918 90.6434 61.5838 91.222 61.5838C91.7817 61.5838 92.2078 61.7596 92.5004 62.1117C92.7961 62.4635 92.9471 63.0021 92.9534 63.7273V64.2046H89.8866V64.4845C89.8866 65.0537 90.0121 65.4929 90.2634 65.802C90.5176 66.111 90.8754 66.2654 91.3365 66.2654C91.8452 66.2654 92.2572 66.0866 92.5719 65.7284L92.8486 66.0682C92.5114 66.5119 91.9995 66.7338 91.3126 66.7338ZM91.222 62.0611C90.8056 62.0611 90.4844 62.2033 90.2585 62.4879C90.0361 62.7694 89.9135 63.1826 89.8913 63.7273H92.424V63.5941C92.3986 62.572 91.9978 62.0611 91.222 62.0611ZM98.2877 64.3929C98.2877 65.1578 98.1495 65.7392 97.8728 66.1371C97.5961 66.5347 97.1826 66.7338 96.6327 66.7338C96.0349 66.7338 95.5882 66.5042 95.2925 66.0452V68.5513H94.7676V61.6755H95.2541L95.278 62.3549C95.5833 61.8407 96.03 61.5838 96.6183 61.5838C97.1748 61.5838 97.5915 61.7735 97.8679 62.1528C98.1446 62.5323 98.2845 63.1121 98.2877 63.8925V64.3929ZM97.7582 63.9292C97.7582 63.2928 97.6549 62.8247 97.4483 62.5246C97.2447 62.2247 96.9252 62.0748 96.4896 62.0748C95.9298 62.0748 95.5308 62.3488 95.2925 62.8964V65.5127C95.5308 66.0116 95.933 66.2609 96.4991 66.2609C96.9252 66.2609 97.24 66.111 97.4435 65.8111C97.6503 65.5113 97.7551 65.0492 97.7582 64.4248V63.9292ZM103.045 61.6755H103.574V66.6419H103.045V62.5798L100.77 66.6419H100.24V61.6755H100.77V65.7423L103.045 61.6755ZM109.085 66.6419H108.556V64.3698H106.285V66.6419H105.751V61.6755H106.285V63.897H108.556V61.6755H109.085V66.6419ZM113.952 66.6419C113.904 66.4828 113.872 66.2532 113.857 65.9533C113.698 66.2012 113.492 66.3939 113.241 66.5317C112.993 66.6663 112.723 66.7338 112.43 66.7338C111.985 66.7338 111.639 66.6127 111.391 66.3711C111.142 66.1293 111.019 65.785 111.019 65.3383C111.019 64.8518 111.19 64.4662 111.534 64.1816C111.88 63.897 112.357 63.7532 112.965 63.7501H113.852V63.0571C113.852 62.7022 113.76 62.4482 113.575 62.2952C113.394 62.1392 113.127 62.0611 112.774 62.0611C112.446 62.0611 112.178 62.1528 111.968 62.3366C111.758 62.5201 111.653 62.7572 111.653 63.0479L111.123 63.0435C111.123 62.6364 111.282 62.2922 111.6 62.0106C111.919 61.726 112.318 61.5838 112.798 61.5838C113.316 61.5838 113.709 61.7091 113.976 61.9601C114.243 62.2111 114.377 62.5767 114.377 63.0571V65.4943C114.377 65.981 114.422 66.3451 114.515 66.5869V66.6419H113.952ZM112.497 66.2426C112.809 66.2426 113.084 66.1646 113.322 66.0085C113.564 65.8525 113.74 65.6443 113.852 65.3841V64.1771H113.012C112.529 64.1832 112.165 64.2871 111.92 64.4892C111.675 64.688 111.553 64.9574 111.553 65.2969C111.553 65.9275 111.868 66.2426 112.497 66.2426Z" fill="#5F5925"/>
<path d="M120 52.5415H117.558V68.9919H120V52.5415Z" fill="#023047"/>
</g>
<defs>
<clipPath id="clip0">
<rect width="120" height="90" fill="white"/>
</clipPath>
</defs>
</svg>
